<svg xmlns="http://www.w3.org/2000/svg" viewBox="0 0 512 512">
  <defs>
    <linearGradient id="fireGrad" x1="0%" y1="100%" x2="0%" y2="0%">
      <stop offset="0%" style="stop-color:#ff6b00"/>
      <stop offset="50%" style="stop-color:#ff9500"/>
      <stop offset="100%" style="stop-color:#ffcc00"/>
    </linearGradient>
    <linearGradient id="bgGrad" x1="0%" y1="0%" x2="100%" y2="100%">
      <stop offset="0%" style="stop-color:#1a1a2e"/>
      <stop offset="100%" style="stop-color:#16213e"/>
    </linearGradient>
  </defs>
  
  <!-- Background -->
  <rect width="512" height="512" rx="100" fill="url(#bgGrad)"/>
  
  <!-- Flame icon -->
  <g transform="translate(256, 220)">
    <path d="M0-140 c-25,50-65,85-65,130 c0,55,40,95,65,95 c-15,-25-25,-50-25,-75 c0,-40,40,-70,40,-100 c25,40,50,65,50,105 c0,25,-10,50,-25,75 c25,0,65,-40,65,-95 c0,-50,-40,-80,-65,-130 c-15,30,-40,50,-40,80 c0,-50,-25,-65,-25,-85z" 
          fill="url(#fireGrad)" 
          stroke="#ff9500" 
          stroke-width="2"/>
  </g>
  
  <!-- FS Text -->
  <text x="256" y="420" text-anchor="middle" fill="white" font-family="Arial, sans-serif" font-size="100" font-weight="bold">FS</text>
  
  <!-- Subtitle -->
  <text x="256" y="465" text-anchor="middle" fill="#888" font-family="Arial, sans-serif" font-size="32">studio</text>
</svg>